<svg width="2164" height="1318" xmlns="http://www.w3.org/2000/svg" xmlns:xlink="http://www.w3.org/1999/xlink" xml:space="preserve" overflow="hidden"><g transform="translate(-569 -599)"><path d="M572.5 1091.2C572.5 1079.22 582.198 1069.5 594.161 1069.5L1135.84 1069.5C1147.8 1069.5 1157.5 1079.22 1157.5 1091.2L1157.5 1264.8C1157.5 1276.78 1147.8 1286.5 1135.84 1286.5L594.161 1286.5C582.198 1286.5 572.5 1276.78 572.5 1264.8L572.5 1091.2Z" stroke="#FFFFFF" stroke-width="6.875" stroke-miterlimit="8" fill="#156082" fill-rule="evenodd"/><text fill="#FFFFFF" font-family="DengXian,DengXian_MSFontService,sans-serif" font-weight="400" font-size="64" transform="matrix(1 0 0 1 736.29 1147)">集中趋势</text><text fill="#FFFFFF" font-family="DengXian,DengXian_MSFontService,sans-serif" font-weight="400" font-size="64" transform="matrix(1 0 0 1 630.301 1243)">Central tendenc</text><text fill="#FFFFFF" font-family="DengXian,DengXian_MSFontService,sans-serif" font-weight="400" font-size="64" transform="matrix(1 0 0 1 1069.15 1243)">y</text><path d="M631.5 1286.5 631.5 1427.33 689.996 1427.33" stroke="#0E4B66" stroke-width="6.875" stroke-miterlimit="8" fill="none" fill-rule="evenodd"/><path d="M689.5 1373C689.5 1365.54 695.562 1359.5 703.041 1359.5L1143.96 1359.5C1151.44 1359.5 1157.5 1365.54 1157.5 1373 1157.5 1409 1157.5 1445 1157.5 1481 1157.5 1488.46 1151.44 1494.5 1143.96 1494.5L703.041 1494.5C695.562 1494.5 689.5 1488.46 689.5 1481L689.5 1373Z" stroke="#156082" stroke-width="6.875" stroke-miterlimit="8" fill="#FFFFFF" fill-rule="evenodd" fill-opacity="0.901961"/><text font-family="DengXian,DengXian_MSFontService,sans-serif" font-weight="400" font-size="64" transform="matrix(1 0 0 1 771.87 1444)">均值</text><text font-family="DengXian,DengXian_MSFontService,sans-serif" font-weight="400" font-size="64" transform="matrix(1 0 0 1 917.964 1444)">Mean</text><path d="M631.5 1286.5 631.5 1635.87 689.996 1635.87" stroke="#0E4B66" stroke-width="6.875" stroke-miterlimit="8" fill="none" fill-rule="evenodd"/><path d="M689.5 1581.1C689.5 1573.59 695.562 1567.5 703.041 1567.5L1143.96 1567.5C1151.44 1567.5 1157.5 1573.59 1157.5 1581.1 1157.5 1617.37 1157.5 1653.63 1157.5 1689.9 1157.5 1697.41 1151.44 1703.5 1143.96 1703.5L703.041 1703.5C695.562 1703.5 689.5 1697.41 689.5 1689.9L689.5 1581.1Z" stroke="#156082" stroke-width="6.875" stroke-miterlimit="8" fill="#FFFFFF" fill-rule="evenodd" fill-opacity="0.901961"/><text font-family="DengXian,DengXian_MSFontService,sans-serif" font-weight="400" font-size="64" transform="matrix(1 0 0 1 746.375 1652)">中数</text><text font-family="DengXian,DengXian_MSFontService,sans-serif" font-weight="400" font-size="64" transform="matrix(1 0 0 1 892.469 1652)">Median</text><path d="M631.5 1286.5 631.5 1844.42 689.996 1844.42" stroke="#0E4B66" stroke-width="6.875" stroke-miterlimit="8" fill="none" fill-rule="evenodd"/><path d="M689.5 1790C689.5 1782.54 695.562 1776.5 703.041 1776.5L1143.96 1776.5C1151.44 1776.5 1157.5 1782.54 1157.5 1790 1157.5 1826 1157.5 1862 1157.5 1898 1157.5 1905.46 1151.44 1911.5 1143.96 1911.5L703.041 1911.5C695.562 1911.5 689.5 1905.46 689.5 1898L689.5 1790Z" stroke="#156082" stroke-width="6.875" stroke-miterlimit="8" fill="#FFFFFF" fill-rule="evenodd" fill-opacity="0.901961"/><text font-family="DengXian,DengXian_MSFontService,sans-serif" font-weight="400" font-size="64" transform="matrix(1 0 0 1 769.005 1861)">众数</text><text font-family="DengXian,DengXian_MSFontService,sans-serif" font-weight="400" font-size="64" transform="matrix(1 0 0 1 915.099 1861)">Mod</text><text font-family="DengXian,DengXian_MSFontService,sans-serif" font-weight="400" font-size="64" transform="matrix(1 0 0 1 1044.01 1861)">e</text><path d="M1252.5 631.3C1252.5 615.394 1265.43 602.5 1281.39 602.5L2014.61 602.5C2030.57 602.5 2043.5 615.394 2043.5 631.3L2043.5 861.7C2043.5 877.606 2030.57 890.5 2014.61 890.5L1281.39 890.5C1265.43 890.5 1252.5 877.606 1252.5 861.7L1252.5 631.3Z" stroke="#FFFFFF" stroke-width="6.875" stroke-miterlimit="8" fill="#156082" fill-rule="evenodd"/><text fill="#FFFFFF" font-family="DengXian,DengXian_MSFontService,sans-serif" font-weight="400" font-size="83" transform="matrix(1 0 0 1 1482.67 707)">数据</text><text fill="#FFFFFF" font-family="DengXian,DengXian_MSFontService,sans-serif" font-weight="400" font-size="83" transform="matrix(1 0 0 1 1647.67 707)">特性</text><text fill="#FFFFFF" font-family="DengXian,DengXian_MSFontService,sans-serif" font-weight="400" font-size="83" transform="matrix(1 0 0 1 1306.21 831)">Data characteristics</text><path d="M1355.5 1091.2C1355.5 1079.22 1365.2 1069.5 1377.16 1069.5L1918.84 1069.5C1930.8 1069.5 1940.5 1079.22 1940.5 1091.2L1940.5 1264.8C1940.5 1276.78 1930.8 1286.5 1918.84 1286.5L1377.16 1286.5C1365.2 1286.5 1355.5 1276.78 1355.5 1264.8L1355.5 1091.2Z" stroke="#FFFFFF" stroke-width="6.875" stroke-miterlimit="8" fill="#156082" fill-rule="evenodd"/><text fill="#FFFFFF" font-family="DengXian,DengXian_MSFontService,sans-serif" font-weight="400" font-size="64" transform="matrix(1 0 0 1 1551.41 1147)">变异性</text><text fill="#FFFFFF" font-family="DengXian,DengXian_MSFontService,sans-serif" font-weight="400" font-size="64" transform="matrix(1 0 0 1 1512.75 1243)">Variability</text><path d="M1414.5 1286.5 1414.5 1427.33 1473 1427.33" stroke="#0E4B66" stroke-width="6.875" stroke-miterlimit="8" fill="none" fill-rule="evenodd"/><path d="M1472.5 1373C1472.5 1365.54 1478.56 1359.5 1486.04 1359.5L1926.96 1359.5C1934.44 1359.5 1940.5 1365.54 1940.5 1373 1940.5 1409 1940.5 1445 1940.5 1481 1940.5 1488.46 1934.44 1494.5 1926.96 1494.5L1486.04 1494.5C1478.56 1494.5 1472.5 1488.46 1472.5 1481L1472.5 1373Z" stroke="#156082" stroke-width="6.875" stroke-miterlimit="8" fill="#FFFFFF" fill-rule="evenodd" fill-opacity="0.901961"/><text font-family="DengXian,DengXian_MSFontService,sans-serif" font-weight="400" font-size="64" transform="matrix(1 0 0 1 1489.61 1444)">全距</text><text font-family="DengXian,DengXian_MSFontService,sans-serif" font-weight="400" font-size="64" transform="matrix(1 0 0 1 1635.7 1444)">Full Range</text><path d="M1414.5 1286.5 1414.5 1635.87 1473 1635.87" stroke="#0E4B66" stroke-width="6.875" stroke-miterlimit="8" fill="none" fill-rule="evenodd"/><path d="M1472.5 1581.1C1472.5 1573.59 1483.41 1567.5 1496.86 1567.5L2290.14 1567.5C2303.59 1567.5 2314.5 1573.59 2314.5 1581.1 2314.5 1617.37 2314.5 1653.63 2314.5 1689.9 2314.5 1697.41 2303.59 1703.5 2290.14 1703.5L1496.86 1703.5C1483.41 1703.5 1472.5 1697.41 1472.5 1689.9L1472.5 1581.1Z" stroke="#156082" stroke-width="6.875" stroke-miterlimit="8" fill="#FFFFFF" fill-rule="evenodd" fill-opacity="0.901961"/><text font-family="DengXian,DengXian_MSFontService,sans-serif" font-weight="400" font-size="64" transform="matrix(1 0 0 1 1491.97 1652)">四分位</text><text font-family="DengXian,DengXian_MSFontService,sans-serif" font-weight="400" font-size="64" transform="matrix(1 0 0 1 1684.47 1652)">距</text><text font-family="DengXian,DengXian_MSFontService,sans-serif" font-weight="400" font-size="64" transform="matrix(1 0 0 1 1766.4 1652)">Interquartile Range</text><path d="M1414.5 1286.5 1414.5 1844.42 1473 1844.42" stroke="#0E4B66" stroke-width="6.875" stroke-miterlimit="8" fill="none" fill-rule="evenodd"/><path d="M1472.5 1790C1472.5 1782.54 1482.64 1776.5 1495.16 1776.5L2232.85 1776.5C2245.36 1776.5 2255.5 1782.54 2255.5 1790 2255.5 1826 2255.5 1862 2255.5 1898 2255.5 1905.46 2245.36 1911.5 2232.84 1911.5L1495.16 1911.5C1482.64 1911.5 1472.5 1905.46 1472.5 1898L1472.5 1790Z" stroke="#156082" stroke-width="6.875" stroke-miterlimit="8" fill="#FFFFFF" fill-rule="evenodd" fill-opacity="0.901961"/><text font-family="DengXian,DengXian_MSFontService,sans-serif" font-weight="400" font-size="64" transform="matrix(1 0 0 1 1495.01 1861)">标准差</text><text font-family="DengXian,DengXian_MSFontService,sans-serif" font-weight="400" font-size="64" transform="matrix(1 0 0 1 1705.27 1861)">Standard Deviation</text><path d="M2138.5 1088.2C2138.5 1076.22 2148.2 1066.5 2160.16 1066.5L2701.84 1066.5C2713.8 1066.5 2723.5 1076.22 2723.5 1088.2L2723.5 1261.8C2723.5 1273.78 2713.8 1283.5 2701.84 1283.5L2160.16 1283.5C2148.2 1283.5 2138.5 1273.78 2138.5 1261.8L2138.5 1088.2Z" stroke="#FFFFFF" stroke-width="6.875" stroke-miterlimit="8" fill="#156082" fill-rule="evenodd"/><text fill="#FFFFFF" font-family="DengXian,DengXian_MSFontService,sans-serif" font-weight="400" font-size="64" transform="matrix(1 0 0 1 2366.55 1144)">形状</text><text fill="#FFFFFF" font-family="DengXian,DengXian_MSFontService,sans-serif" font-weight="400" font-size="64" transform="matrix(1 0 0 1 2345.36 1240)">Shap</text><text fill="#FFFFFF" font-family="DengXian,DengXian_MSFontService,sans-serif" font-weight="400" font-size="64" transform="matrix(1 0 0 1 2482.86 1240)">e</text><path d="M2197.5 1283.5 2197.5 1424.33 2256 1424.33" stroke="#0E4B66" stroke-width="6.875" stroke-miterlimit="8" fill="none" fill-rule="evenodd"/><path d="M2255.5 1370C2255.5 1362.54 2261.56 1356.5 2269.04 1356.5L2709.96 1356.5C2717.44 1356.5 2723.5 1362.54 2723.5 1370 2723.5 1406 2723.5 1442 2723.5 1478 2723.5 1485.46 2717.44 1491.5 2709.96 1491.5L2269.04 1491.5C2261.56 1491.5 2255.5 1485.46 2255.5 1478L2255.5 1370Z" stroke="#156082" stroke-width="6.875" stroke-miterlimit="8" fill="#FFFFFF" fill-rule="evenodd" fill-opacity="0.901961"/><text font-family="DengXian,DengXian_MSFontService,sans-serif" font-weight="400" font-size="64" transform="matrix(1 0 0 1 2284.69 1441)">偏度</text><text font-family="DengXian,DengXian_MSFontService,sans-serif" font-weight="400" font-size="64" transform="matrix(1 0 0 1 2430.78 1441)">Skewness</text><path d="M1654.87 891 1654.88 1035.31 1641.13 1035.31 1641.12 891ZM1668.63 1028.44 1648 1069.69 1627.38 1028.44Z" fill="#156082"/><path d="M0 0 1566.1 0.000360892" stroke="#156082" stroke-width="13.75" stroke-miterlimit="8" fill="none" fill-rule="evenodd" transform="matrix(-1 0 0 1 2431.1 982)"/><path d="M871.875 982 871.875 1035.57 858.125 1035.57 858.125 982ZM885.625 1028.7 865 1069.95 844.375 1028.7Z" fill="#156082"/><path d="M2437.88 982 2437.88 1035.57 2424.13 1035.57 2424.12 982ZM2451.63 1028.7 2431 1069.95 2410.38 1028.7Z" fill="#156082"/></g></svg>